<svg width="33" height="34" viewBox="0 0 33 34" fill="none" xmlns="http://www.w3.org/2000/svg">
<g id="User attributes">
<path id="Vector" d="M19.25 10.125V7.375H30.25V10.125H19.25ZM19.25 15.625V12.875H30.25V15.625H19.25ZM19.25 21.125V18.375H30.25V21.125H19.25ZM11 19.75C9.85417 19.75 8.88021 19.349 8.07812 18.5469C7.27604 17.7448 6.875 16.7708 6.875 15.625C6.875 14.4792 7.27604 13.5052 8.07812 12.7031C8.88021 11.901 9.85417 11.5 11 11.5C12.1458 11.5 13.1198 11.901 13.9219 12.7031C14.724 13.5052 15.125 14.4792 15.125 15.625C15.125 16.7708 14.724 17.7448 13.9219 18.5469C13.1198 19.349 12.1458 19.75 11 19.75ZM2.75 28V25.3875C2.75 24.9062 2.86458 24.4479 3.09375 24.0125C3.32292 23.5771 3.64375 23.2333 4.05625 22.9813C5.0875 22.3625 6.18177 21.8984 7.33906 21.5891C8.49635 21.2797 9.71667 21.125 11 21.125C12.2833 21.125 13.5036 21.2797 14.6609 21.5891C15.8182 21.8984 16.9125 22.3625 17.9438 22.9813C18.3563 23.2333 18.6771 23.5771 18.9062 24.0125C19.1354 24.4479 19.25 24.9062 19.25 25.3875V28H2.75Z" fill="white"/>
</g>
</svg>
