<svg width="33" height="34" viewBox="0 0 33 34" fill="none" xmlns="http://www.w3.org/2000/svg">
<g id="Restaurant menu" clip-path="url(#clip0_428_427)">
<path id="Vector" d="M11.1376 18.8427L15.0288 14.9515L5.37633 5.31275C3.23133 7.45775 3.23133 10.9365 5.37633 13.0952L11.1376 18.8427ZM20.4601 16.354C22.5638 17.3302 25.5201 16.6427 27.7063 14.4565C30.3326 11.8302 30.8413 8.06275 28.8201 6.0415C26.8126 4.034 23.0451 4.529 20.4051 7.15525C18.2188 9.3415 17.5313 12.2977 18.5076 14.4015L5.08758 27.8215L7.02633 29.7602L16.5001 20.314L25.9601 29.774L27.8988 27.8352L18.4388 18.3752L20.4601 16.354Z" fill="white"/>
</g>
<defs>
<clipPath id="clip0_428_427">
<rect width="33" height="33" fill="white" transform="translate(0 0.5)"/>
</clipPath>
</defs>
</svg>
