<svg width="30" height="30" viewBox="0 0 30 30" fill="none" xmlns="http://www.w3.org/2000/svg">
<path id="Vector" d="M22.0537 23.4562L21.3525 22.755C21.105 22.5075 20.8091 22.3838 20.4648 22.3838C20.1216 22.3838 19.8262 22.5075 19.5787 22.755C19.3312 23.0025 19.2075 23.2913 19.2075 23.6213C19.2075 23.9513 19.3312 24.24 19.5787 24.4875L21.1875 26.0963C21.435 26.3438 21.7237 26.4675 22.0537 26.4675C22.3837 26.4675 22.6725 26.3438 22.92 26.0963L26.9212 22.1775C27.1688 21.93 27.2925 21.6341 27.2925 21.2898C27.2925 20.9466 27.1688 20.6512 26.9212 20.4037C26.6737 20.1562 26.3784 20.0325 26.0352 20.0325C25.6909 20.0325 25.395 20.1562 25.1475 20.4037L22.0537 23.4562ZM21.6 8.4C22.0675 8.4 22.4591 8.2416 22.7748 7.9248C23.0916 7.6091 23.25 7.2175 23.25 6.75C23.25 6.2825 23.0916 5.89035 22.7748 5.57355C22.4591 5.25785 22.0675 5.1 21.6 5.1H5.1C4.6325 5.1 4.24035 5.25785 3.92355 5.57355C3.60785 5.89035 3.45 6.2825 3.45 6.75C3.45 7.2175 3.60785 7.6091 3.92355 7.9248C4.24035 8.2416 4.6325 8.4 5.1 8.4H21.6ZM23.25 31.5C20.9675 31.5 19.0222 30.6959 17.4139 29.0877C15.8046 27.4784 15 25.5325 15 23.25C15 20.9675 15.8046 19.0216 17.4139 17.4123C19.0222 15.8041 20.9675 15 23.25 15C25.5325 15 27.4784 15.8041 29.0877 17.4123C30.6959 19.0216 31.5 20.9675 31.5 23.25C31.5 25.5325 30.6959 27.4784 29.0877 29.0877C27.4784 30.6959 25.5325 31.5 23.25 31.5ZM1.8 -1.5H24.9C25.8075 -1.5 26.5847 -1.17715 27.2314 -0.53145C27.8771 0.11535 28.2 0.8925 28.2 1.8V12.8138C27.43 12.4288 26.6259 12.1466 25.7877 11.9673C24.9484 11.7891 24.1025 11.7 23.25 11.7H5.1C4.6325 11.7 4.24035 11.8578 3.92355 12.1735C3.60785 12.4903 3.45 12.8825 3.45 13.35C3.45 13.8175 3.60785 14.2091 3.92355 14.5248C4.24035 14.8416 4.6325 15 5.1 15H15.165C14.6975 15.4675 14.2641 15.9762 13.8648 16.5263C13.4666 17.0763 13.1163 17.6675 12.8138 18.3H5.1C4.6325 18.3 4.24035 18.4578 3.92355 18.7736C3.60785 19.0903 3.45 19.4825 3.45 19.95C3.45 20.4175 3.60785 20.8091 3.92355 21.1248C4.24035 21.4416 4.6325 21.6 5.1 21.6H11.8237C11.7687 21.875 11.7341 22.1434 11.7198 22.4052C11.7066 22.6659 11.7 22.9475 11.7 23.25C11.7 24.405 11.8584 25.5121 12.1752 26.5715C12.4909 27.6297 12.965 28.64 13.5975 29.6025C13.46 29.63 13.3153 29.6091 13.1636 29.5398C13.0128 29.4716 12.8825 29.3825 12.7725 29.2725L11.4525 27.9525C11.2875 27.7875 11.095 27.705 10.875 27.705C10.655 27.705 10.4625 27.7875 10.2975 27.9525L8.9775 29.2725C8.8125 29.4375 8.62 29.52 8.4 29.52C8.18 29.52 7.9875 29.4375 7.8225 29.2725L6.5025 27.9525C6.3375 27.7875 6.145 27.705 5.925 27.705C5.705 27.705 5.5125 27.7875 5.3475 27.9525L4.0275 29.2725C3.8625 29.4375 3.67 29.52 3.45 29.52C3.23 29.52 3.0375 29.4375 2.8725 29.2725L1.5525 27.9525C1.3875 27.7875 1.195 27.705 0.975 27.705C0.755 27.705 0.5625 27.7875 0.3975 27.9525L-0.9225 29.2725L-1.5 29.6437V1.8C-1.5 0.8925 -1.17715 0.11535 -0.53145 -0.53145C0.11535 -1.17715 0.8925 -1.5 1.8 -1.5Z" fill="white"/>
</svg>
